<svg width="24" height="24" viewBox="0 0 24 24" fill="none" xmlns="http://www.w3.org/2000/svg">
<g clip-path="url(#clip0_121_629)">
<path d="M18.5625 13.1564C17.4608 13.1564 16.4257 12.6914 15.4882 11.9302L15.7147 10.8562L15.7222 10.8134C15.9292 9.67268 16.5698 7.75493 18.5618 7.75493C19.2786 7.75512 19.966 8.03997 20.4728 8.54684C20.9797 9.0537 21.2646 9.74111 21.2648 10.4579C21.2636 11.1741 20.9783 11.8605 20.4715 12.3666C19.9648 12.8727 19.2779 13.157 18.5618 13.1572L18.5625 13.1564ZM18.5625 5.01968C16.0238 5.01968 14.0505 6.66818 13.2502 9.38318C12.0315 7.55093 11.1015 5.34818 10.563 3.49268H7.8285V10.6057C7.82711 11.2808 7.55832 11.9278 7.08097 12.4051C6.60361 12.8825 5.95658 13.1513 5.2815 13.1527C4.6066 13.1507 3.95991 12.8817 3.48268 12.4045C3.00546 11.9273 2.73648 11.2806 2.7345 10.6057V3.49268H0V10.6057C0 13.5194 2.37075 15.9067 5.2815 15.9067C8.19525 15.9067 10.563 13.5202 10.563 10.6057V9.41393C11.094 10.5194 11.7465 11.6444 12.5392 12.6367L10.8637 20.5079H13.6605L14.8755 14.7967C15.9382 15.4762 17.1607 15.9059 18.5632 15.9059C21.5632 15.9059 24.0007 13.4527 24.0007 10.4564C24.0007 7.45643 21.5632 5.01893 18.5632 5.01893L18.5625 5.01968Z" fill="white"/>
</g>
<defs>
<clipPath id="clip0_121_629">
<rect width="24" height="24" fill="white"/>
</clipPath>
</defs>
</svg>
